<?xml version="1.0" encoding="UTF-8"?>
<svg width="101px" height="64px" viewBox="0 0 101 64" version="1.1" xmlns="http://www.w3.org/2000/svg" xmlns:xlink="http://www.w3.org/1999/xlink">
    <!-- Generator: Sketch 55 (78076) - https://sketchapp.com -->
    <title>Group 4</title>
    <desc>Created with Sketch.</desc>
    <g id="Page-1" stroke="none" stroke-width="1" fill="none" fill-rule="evenodd">
        <g id="Group-4">
            <g id="credit-card" fill-rule="nonzero">
                <path d="M90.1578093,59.1351845 L4.56551724,59.1351845 C2.49208925,59.1351845 0.811359026,57.4458058 0.811359026,55.3617087 L0.811359026,4.7867767 C0.811359026,2.70267961 2.49208925,1.01330097 4.56551724,1.01330097 L90.1578093,1.01330097 C92.2312373,1.01330097 93.9119675,2.70267961 93.9119675,4.7867767 L93.9119675,55.3617087 C93.9115619,57.4458058 92.2308316,59.1351845 90.1578093,59.1351845 Z" id="Path" fill="#F4EFED"></path>
                <path d="M90.1578093,1.01330097 L86.4036511,1.01330097 C88.4770791,1.01330097 90.1578093,2.70267961 90.1578093,4.7867767 L90.1578093,55.3617087 C90.1578093,57.4458058 88.4770791,59.1351845 86.4036511,59.1351845 L90.1578093,59.1351845 C92.2312373,59.1351845 93.9119675,57.4458058 93.9119675,55.3617087 L93.9119675,4.7867767 C93.9115619,2.70308738 92.2308316,1.01330097 90.1578093,1.01330097 Z" id="Path" fill="#D6D1CF"></path>
                <path d="M4.56551724,59.1351845 L8.31967546,59.1351845 C6.24624746,59.1351845 4.56551724,57.4458058 4.56551724,55.3617087 L4.56551724,4.7867767 C4.56551724,2.70267961 6.24624746,1.01330097 8.31967546,1.01330097 L4.56551724,1.01330097 C2.49208925,1.01330097 0.811359026,2.70308738 0.811359026,4.7867767 L0.811359026,55.3617087 C0.811359026,57.4458058 2.49208925,59.1351845 4.56551724,59.1351845 Z" id="Path" fill="#FFFFFF"></path>
                <polygon id="Path" fill="#81706A" points="0.811359026 9.69221359 93.9115619 9.69221359 93.9115619 18.7817476 0.811359026 18.7817476"></polygon>
                <polygon id="Path" fill="#F7F7F7" points="90.1578093 9.69221359 93.9119675 9.69221359 93.9119675 18.7817476 90.1578093 18.7817476"></polygon>
                <polygon id="Path" fill="#FFFFFF" points="0.811359026 9.69221359 4.56551724 9.69221359 4.56551724 18.7817476 0.811359026 18.7817476"></polygon>
                <g id="Group">
                    <path d="M90.1578093,59.9503107 L4.56551724,59.9503107 C2.04787018,59.9503107 -8.8817842e-15,57.8923107 -8.8817842e-15,55.3621165 L-8.8817842e-15,4.7867767 C-8.8817842e-15,2.25658252 2.04787018,0.19776699 4.56551724,0.19776699 L90.1578093,0.19776699 C92.6750507,0.19776699 94.7229209,2.25658252 94.7229209,4.7867767 L94.7229209,55.3617087 C94.7229209,57.8923107 92.6750507,59.9503107 90.1578093,59.9503107 L90.1578093,59.9503107 Z M4.56551724,1.82883495 C2.94279919,1.82883495 1.62271805,3.15570874 1.62271805,4.7867767 L1.62271805,55.3617087 C1.62271805,56.9923689 2.94279919,58.3192427 4.56551724,58.3192427 L90.1578093,58.3192427 C91.7801217,58.3192427 93.1002028,56.9923689 93.1002028,55.3617087 L93.1002028,4.7867767 C93.1002028,3.15570874 91.7801217,1.82883495 90.1578093,1.82883495 L4.56551724,1.82883495 Z" id="Shape" fill="#81706A"></path>
                    <path d="M3.81460446,28.9987573 C3.36673428,28.9987573 3.00324544,28.6338058 3.00324544,28.1832233 L3.00324544,23.2900194 C3.00324544,22.8398447 3.3663286,22.4744854 3.81460446,22.4744854 C4.26288032,22.4744854 4.62596349,22.8398447 4.62596349,23.2900194 L4.62596349,28.1832233 C4.62596349,28.6338058 4.26247465,28.9987573 3.81460446,28.9987573 Z" id="Path" fill="#562B1A"></path>
                    <path d="M93.9115619,19.5972816 L0.811359026,19.5972816 C0.363083164,19.5972816 0,19.2319223 0,18.7817476 L0,9.69262136 C0,9.2424466 0.363083164,8.87708738 0.811359026,8.87708738 L93.9115619,8.87708738 C94.359432,8.87708738 94.7229209,9.2424466 94.7229209,9.69262136 L94.7229209,18.7817476 C94.7229209,19.2319223 94.3598377,19.5972816 93.9115619,19.5972816 Z M1.62271805,17.9662136 L93.1002028,17.9662136 L93.1002028,10.5081553 L1.62271805,10.5081553 L1.62271805,17.9662136 Z" id="Shape" fill="#81706A"></path>
                    <path d="M32.1484787,39.8445437 L9.87707911,39.8445437 C9.42920892,39.8445437 9.06572008,39.4795922 9.06572008,39.0290097 C9.06572008,38.578835 9.42920892,38.2134757 9.87707911,38.2134757 L32.1484787,38.2134757 C32.5963489,38.2134757 32.9598377,38.578835 32.9598377,39.0290097 C32.9598377,39.4791845 32.5967546,39.8445437 32.1484787,39.8445437 Z" id="Path" fill="#562B1A"></path>
                </g>
            </g>
            <g id="Group-3" transform="translate(69.574037, 32.417476)">
                <ellipse id="Oval" stroke="#562B1A" stroke-width="2.02839757" fill="#F5F5F4" cx="15.2129817" cy="15.2912621" rx="15.2129817" ry="15.2912621"></ellipse>
                <g id="Group-2" transform="translate(1.014199, 2.038835)">
                    <path d="M14.198783,28.5436893 C8.2086714,28.5335043 2.8686619,24.7484422 0.847425827,19.0802298 C0.750363902,18.813812 0.658634986,18.5457861 0.57863877,18.2745439 C0.519974996,18.0724523 0.469844008,17.8660723 0.421846388,17.6596924 C0.373315357,17.4533125 0.312518217,17.2206659 0.266653827,17.0008847 C0.212789788,16.725354 0.175991457,16.4444628 0.13865999,16.1635716 C0.11679441,15.9963235 0.0863957716,15.8338997 0.0698633367,15.6618271 C0.0261320409,15.2008225 0,14.7392819 0,14.2718447 C0,6.38973814 6.35702723,0 14.198783,0 C22.0405387,0 28.3975659,6.38973814 28.3975659,14.2718447 C28.3975659,22.1539512 22.0405387,28.5436893 14.198783,28.5436893 Z" id="Path"></path>
                    <path d="M16.6018672,7.70681752 C16.010429,7.5883501 15.4355234,7.97377142 15.3171291,8.56771688 L14.198783,14.1619541 L13.0847033,8.56289244 C13.0201731,8.1672861 12.7455196,7.83815033 12.3690044,7.70520947 C11.991956,7.57226861 11.5733094,7.65642872 11.2767903,7.92499066 C10.979738,8.19301659 10.8522774,8.60309623 10.9440063,8.99334198 L13.1284345,19.971684 C13.2318962,20.4836136 13.6793412,20.8513451 14.198783,20.8513451 C14.7182247,20.8513451 15.1656697,20.4836136 15.2691315,19.971684 L17.4535596,8.99334198 C17.5687541,8.40207675 17.1885057,7.82796531 16.6018672,7.70681752 L16.6018672,7.70681752 Z" id="Path" fill="#562B1A" fill-rule="nonzero"></path>
                    <path d="M22.9583611,8.56289244 L21.8442815,14.1619541 L20.7302018,8.56289244 C20.6656716,8.1672861 20.3910182,7.83815033 20.0145029,7.70520947 C19.6374545,7.57226861 19.2188079,7.65642872 18.9222888,7.92499066 C18.6252365,8.19301659 18.4977759,8.60309623 18.5895048,8.99334198 L20.773933,19.971684 C20.8773947,20.4836136 21.3248398,20.8513451 21.8442815,20.8513451 C22.3637232,20.8513451 22.8111682,20.4836136 22.91463,19.971684 L25.0990581,8.99334198 C25.190787,8.60309623 25.0633265,8.19301659 24.7662741,7.92499066 C24.4697551,7.65642872 24.0511085,7.57226861 23.6740601,7.70520947 C23.2975448,7.83815033 23.0228913,8.1672861 22.9583611,8.56289244 L22.9583611,8.56289244 Z" id="Path" fill="#562B1A" fill-rule="nonzero"></path>
                    <path d="M7.64549852,7.68483943 L5.46107037,7.68483943 C4.25472839,7.68483943 3.27664222,8.66795847 3.27664222,9.88050784 L3.27664222,18.6631815 C3.27664222,19.8757308 4.25472839,20.8588499 5.46107037,20.8588499 L7.64549852,20.8588499 C8.8518405,20.8588499 9.82992667,19.8757308 9.82992667,18.6631815 L9.82992667,17.5653473 C9.82992667,16.9590726 9.34088358,16.4675131 8.73771259,16.4675131 C8.1345416,16.4675131 7.64549852,16.9590726 7.64549852,17.5653473 L7.64549852,18.6631815 L5.46107037,18.6631815 L5.46107037,9.88050784 L7.64549852,9.88050784 L7.64549852,10.978342 C7.64549852,11.5846167 8.1345416,12.0761763 8.73771259,12.0761763 C9.34088358,12.0761763 9.82992667,11.5846167 9.82992667,10.978342 L9.82992667,9.88050784 C9.82992667,8.66795847 8.8518405,7.68483943 7.64549852,7.68483943 Z" id="Path" fill="#562B1A" fill-rule="nonzero"></path>
                </g>
            </g>
        </g>
    </g>
</svg>